<svg width="22" height="20" viewBox="0 0 22 20" fill="none" xmlns="http://www.w3.org/2000/svg">
<path d="M8.7063 0.408173H12.8179C13.3631 0.408173 13.886 0.624765 14.2716 1.0103C14.6571 1.39584 14.8737 1.91874 14.8737 2.46397V4.51977H18.9853C19.5305 4.51977 20.0534 4.73637 20.439 5.1219C20.8245 5.50744 21.0411 6.03034 21.0411 6.57557V17.8825C21.0411 18.4277 20.8245 18.9506 20.439 19.3361C20.0534 19.7217 19.5305 19.9383 18.9853 19.9383H2.53889C1.39792 19.9383 0.483093 19.0132 0.483093 17.8825V6.57557C0.483093 5.4346 1.39792 4.51977 2.53889 4.51977H6.65049V2.46397C6.65049 1.323 7.56533 0.408173 8.7063 0.408173ZM12.8179 4.51977V2.46397H8.7063V4.51977H12.8179Z" fill="#745421"/>
</svg>
