<svg width="28" height="22" viewBox="0 0 28 22" fill="none" xmlns="http://www.w3.org/2000/svg">
<path d="M24.7612 19.085H22.0851V7.37699L14.0567 12.3947L6.02833 7.37699V19.085H3.35221V3.02829H4.95788L14.0567 8.71505L23.1555 3.02829H24.7612M24.7612 0.352173H3.35221C1.86696 0.352173 0.676086 1.54305 0.676086 3.02829V19.085C0.676086 19.7948 0.958034 20.4755 1.4599 20.9773C1.96177 21.4792 2.64246 21.7611 3.35221 21.7611H24.7612C25.4709 21.7611 26.1516 21.4792 26.6535 20.9773C27.1553 20.4755 27.4373 19.7948 27.4373 19.085V3.02829C27.4373 1.54305 26.233 0.352173 24.7612 0.352173Z" fill="#206C47"/>
</svg>
