<svg width="10" height="16" viewBox="0 0 10 16" fill="none" xmlns="http://www.w3.org/2000/svg">
<path d="M3.27889 13.1181H5.55815V15.3974H3.27889V13.1181ZM4.7984 0.202316C8.86308 0.369462 10.6333 4.47214 8.21729 7.54915C7.5867 8.3089 6.56862 8.81034 6.06719 9.44853C5.55815 10.0791 5.55815 10.8389 5.55815 11.5986H3.27889C3.27889 10.3298 3.27889 9.25859 3.78792 8.49884C4.28936 7.73908 5.30743 7.29083 5.93803 6.78939C7.77664 5.08754 7.32078 2.67912 4.7984 2.48158C4.1939 2.48158 3.61416 2.72172 3.18671 3.14916C2.75927 3.57661 2.51913 4.15635 2.51913 4.76085H0.239868C0.239868 3.55185 0.72014 2.39237 1.57503 1.53748C2.42992 0.682588 3.5894 0.202316 4.7984 0.202316Z" fill="white"/>
</svg>
