<svg width="19" height="19" viewBox="0 0 19 19" fill="none" xmlns="http://www.w3.org/2000/svg">
<path d="M8.88669 6.82113H10.7101V4.99772H8.88669M9.79839 16.8499C5.77777 16.8499 2.50475 13.5769 2.50475 9.55625C2.50475 5.53563 5.77777 2.26261 9.79839 2.26261C13.819 2.26261 17.092 5.53563 17.092 9.55625C17.092 13.5769 13.819 16.8499 9.79839 16.8499ZM9.79839 0.439194C8.60112 0.439194 7.41558 0.675013 6.30945 1.13319C5.20331 1.59136 4.19826 2.26292 3.35166 3.10952C1.64188 4.8193 0.681335 7.13826 0.681335 9.55625C0.681335 11.9742 1.64188 14.2932 3.35166 16.003C4.19826 16.8496 5.20331 17.5211 6.30945 17.9793C7.41558 18.4375 8.60112 18.6733 9.79839 18.6733C12.2164 18.6733 14.5353 17.7128 16.2451 16.003C17.9549 14.2932 18.9154 11.9742 18.9154 9.55625C18.9154 8.35898 18.6796 7.17344 18.2215 6.0673C17.7633 4.96117 17.0917 3.95612 16.2451 3.10952C15.3985 2.26292 14.3935 1.59136 13.2873 1.13319C12.1812 0.675013 10.9957 0.439194 9.79839 0.439194ZM8.88669 14.1148H10.7101V8.64455H8.88669V14.1148Z" fill="white"/>
</svg>
