<svg width="20" height="22" viewBox="0 0 20 22" fill="none" xmlns="http://www.w3.org/2000/svg">
<path d="M7.90845 15.8437V12.7439H0.675583V8.6108H7.90845V5.511L13.0748 10.6773L7.90845 15.8437ZM7.90845 0.344666H17.2078C17.7559 0.344666 18.2816 0.562389 18.6691 0.949939C19.0567 1.33749 19.2744 1.86312 19.2744 2.4112V18.9435C19.2744 19.4915 19.0567 20.0172 18.6691 20.4047C18.2816 20.7923 17.7559 21.01 17.2078 21.01H7.90845C7.36037 21.01 6.83474 20.7923 6.44719 20.4047C6.05964 20.0172 5.84192 19.4915 5.84192 18.9435V16.8769H7.90845V18.9435H17.2078V2.4112H7.90845V4.47773H5.84192V2.4112C5.84192 1.86312 6.05964 1.33749 6.44719 0.949939C6.83474 0.562389 7.36037 0.344666 7.90845 0.344666Z" fill="white"/>
</svg>
