<svg width="212" height="43" viewBox="0 0 212 43" fill="none" xmlns="http://www.w3.org/2000/svg">
<path d="M104.799 30.0966L101.039 36.6084C100.302 37.9018 98.9339 38.5786 97.5503 38.4883H94.5425V41.4961L90.7827 34.7286L94.5425 27.961V30.9688H98.7835L95.4448 25.1788L101.957 21.4191L104.664 26.1112C105.446 27.2692 105.551 28.8182 104.799 30.0966ZM85.8349 11.5084H93.3544C94.8282 11.5084 96.1065 12.3656 96.7231 13.5988L98.227 16.2156L100.829 14.7117L96.8585 21.3439L89.1134 21.4792L91.7152 19.9753L89.5947 16.2908L86.271 22.0808L79.7441 18.321L82.4511 13.6289C83.0677 12.3806 84.3461 11.5084 85.8349 11.5084ZM79.5787 36.6235L75.8189 30.1116C75.082 28.8333 75.1873 27.2993 75.9543 26.1413L77.4582 23.5396L74.8564 22.0357L82.5865 22.156L86.5718 28.8032L83.9701 27.2993L81.8496 30.9688H88.5269V38.4883H83.1129C81.7142 38.5936 80.3306 37.9018 79.5787 36.6235Z" fill="#3CA471"/>
<path d="M0.837542 8.96342C1.81229 9.13671 2.61375 9.25584 3.24192 9.32083C3.8701 9.38581 4.37913 9.43996 4.76903 9.48329C5.22391 9.52661 5.58132 9.53744 5.84126 9.51578H6.81601C7.16258 9.51578 7.59581 9.51578 8.11567 9.51578C8.6572 9.49412 9.32869 9.48329 10.1302 9.48329C10.585 10.5447 10.9966 11.5194 11.3648 12.4075C11.7547 13.2956 12.0797 14.0538 12.3396 14.682C12.6428 15.4401 12.9244 16.1224 13.1844 16.7289C13.4876 17.4871 13.8125 18.321 14.1591 19.2308C14.5057 20.1405 14.8198 20.9962 15.1014 21.7976C15.4046 22.5991 15.6537 23.2597 15.8487 23.7796C16.0436 24.2995 16.1411 24.5378 16.1411 24.4944C16.1411 24.4728 16.1519 24.2562 16.1736 23.8446C16.1953 23.4114 16.2169 22.8807 16.2386 22.2525C16.2602 21.6027 16.2819 20.8987 16.3036 20.1405C16.3469 19.3607 16.3686 18.6134 16.3686 17.8986C16.3902 17.1621 16.401 16.4907 16.401 15.8841C16.401 15.2776 16.3794 14.8227 16.3361 14.5195C16.2711 14.1513 16.1411 13.7289 15.9462 13.2523C15.7729 12.8408 15.5346 12.3534 15.2313 11.7902C14.9281 11.2053 14.5057 10.5447 13.9642 9.8082C14.8523 9.82986 15.5779 9.84069 16.1411 9.84069C16.7043 9.84069 17.1592 9.84069 17.5058 9.84069C17.8957 9.84069 18.1989 9.82986 18.4155 9.8082C18.6971 9.8082 19.0437 9.78654 19.4553 9.74322C19.8235 9.6999 20.2784 9.66741 20.8199 9.64574C21.3831 9.60242 22.0763 9.54827 22.8994 9.48329C22.4228 9.91651 22.0438 10.3281 21.7622 10.718C21.4806 11.1079 21.2531 11.4544 21.0798 11.7577C20.8849 12.1043 20.7549 12.4292 20.6899 12.7325C20.6033 13.1224 20.5275 13.7614 20.4625 14.6495C20.4192 15.5159 20.365 16.4907 20.3 17.5737C20.2567 18.6568 20.2134 19.7831 20.1701 20.9528C20.1268 22.1225 20.0834 23.1948 20.0401 24.1695C20.0401 24.906 20.0184 25.6966 19.9751 26.5414C19.9318 27.2562 19.8885 28.0685 19.8452 28.9783C19.8018 29.8664 19.7477 30.7653 19.6827 31.6751L16.7909 31.7401C15.9462 30.2455 15.2313 28.9674 14.6465 27.9061C14.0833 26.823 13.6176 25.9349 13.2494 25.2417C12.8378 24.4403 12.4912 23.7688 12.2096 23.2273C11.9713 22.7074 11.6573 22.1117 11.2674 21.4402C10.9424 20.877 10.5309 20.1839 10.0327 19.3607C9.55613 18.5376 8.98212 17.5954 8.31062 16.534C8.24564 18.0286 8.21315 19.3066 8.21315 20.368C8.23481 21.4077 8.2673 22.2742 8.31062 22.9673C8.3756 23.7688 8.45142 24.4403 8.53806 24.9818C8.64637 25.5017 8.798 26.0865 8.99295 26.7364C9.16623 27.2995 9.37202 27.9602 9.61029 28.7183C9.87022 29.4765 10.1843 30.3321 10.5525 31.2852C9.27454 31.2202 8.32145 31.1877 7.69328 31.1877H6.71853C6.41528 31.1877 6.00371 31.2202 5.48385 31.2852C5.05063 31.3285 4.45495 31.3935 3.69681 31.4801C2.96033 31.5668 2.03973 31.6859 0.935017 31.8375C1.45488 31.2094 1.86644 30.6354 2.1697 30.1155C2.49462 29.574 2.74372 29.1191 2.91701 28.7508C3.13362 28.3176 3.28525 27.9385 3.37189 27.6136C3.43687 27.267 3.4802 26.6714 3.50186 25.8266C3.52352 24.9601 3.52352 23.9854 3.50186 22.9023C3.50186 21.7976 3.4802 20.6388 3.43687 19.4257C3.41521 18.2127 3.38272 17.0863 3.3394 16.0466C3.29608 15.0069 3.24192 14.1188 3.17694 13.3823C3.13362 12.6458 3.10113 12.1909 3.07947 12.0176C3.01448 11.736 2.88452 11.4328 2.68957 11.1079C2.51628 10.8263 2.28884 10.5122 2.00724 10.1656C1.72565 9.79737 1.33575 9.39664 0.837542 8.96342ZM31.0223 26.7688C31.6288 26.7688 32.192 26.7039 32.7119 26.5739C33.1451 26.4656 33.5566 26.2923 33.9465 26.054C34.3581 25.7941 34.6289 25.415 34.7588 24.9168C35.192 25.0035 35.5603 25.0793 35.8635 25.1443C36.1668 25.1876 36.4267 25.2309 36.6433 25.2742C36.8816 25.3392 37.0874 25.3825 37.2607 25.4042C37.434 25.4475 37.6398 25.4908 37.878 25.5342C38.0946 25.5775 38.3546 25.6316 38.6578 25.6966C38.9827 25.7399 39.3618 25.8049 39.795 25.8916C39.4701 25.8482 39.1344 25.8807 38.7878 25.989C38.4629 26.0974 38.1488 26.2165 37.8455 26.3465C37.499 26.4981 37.174 26.6822 36.8708 26.8988C36.6758 27.0288 36.4484 27.2237 36.1885 27.4837C35.9502 27.7436 35.6036 27.9927 35.1487 28.231C34.6938 28.4692 34.0873 28.675 33.3292 28.8483C32.5927 28.9999 31.6396 29.0541 30.4699 29.0108C29.062 28.9674 27.8814 28.7183 26.9283 28.2635C25.9752 27.7869 25.2063 27.2129 24.6214 26.5414C24.0366 25.8482 23.6142 25.1009 23.3543 24.2995C23.0943 23.498 22.9535 22.7507 22.9319 22.0576C22.9102 21.3644 23.116 20.6388 23.5492 19.8806C23.9824 19.1225 24.5889 18.4293 25.3687 17.8011C26.1702 17.173 27.1341 16.6639 28.2605 16.274C29.3869 15.8625 30.6216 15.6567 31.9645 15.6567C32.7443 15.6567 33.4592 15.7542 34.109 15.9491C34.7805 16.1224 35.387 16.3607 35.9285 16.6639C36.4917 16.9672 36.9791 17.3138 37.3906 17.7037C37.8022 18.0719 38.1488 18.451 38.4304 18.8409C38.712 19.2524 38.9502 19.6857 39.1452 20.1405C39.3185 20.5304 39.4593 20.9745 39.5676 21.4727C39.6759 21.9709 39.7084 22.4799 39.6651 22.9998C38.0188 23.0431 36.6867 23.0756 35.6686 23.0973C34.6722 23.1189 33.8924 23.1298 33.3292 23.1298H31.8671H30.7624C30.3725 23.1298 29.8634 23.1406 29.2352 23.1623C28.6071 23.1839 27.8381 23.2164 26.9283 23.2597C27.0366 24.1262 27.3074 24.7977 27.7406 25.2742C28.1955 25.7291 28.6721 26.0757 29.1703 26.314C29.7335 26.5739 30.3508 26.7255 31.0223 26.7688ZM28.098 20.9203C28.7912 20.9637 29.3652 20.9962 29.8201 21.0178C30.2966 21.0395 30.6865 21.0611 30.9898 21.0828C31.3147 21.1045 31.5746 21.1153 31.7696 21.1153H32.5819C33.1234 21.1153 34.1307 21.0828 35.6036 21.0178C35.5386 20.0647 35.3328 19.3391 34.9863 18.8409C34.6614 18.3427 34.3148 17.9744 33.9465 17.7362C33.5133 17.4762 33.0368 17.3246 32.5169 17.2813C31.1089 17.3029 30.0584 17.5954 29.3652 18.1586C28.6937 18.7217 28.2713 19.6423 28.098 20.9203ZM38.9827 17.0213C39.6326 17.0647 40.2066 17.0972 40.7048 17.1188C41.2247 17.1405 41.6579 17.1621 42.0045 17.1838C42.3944 17.2055 42.7409 17.2163 43.0442 17.2163C43.3475 17.2163 43.694 17.2055 44.0839 17.1838C44.4305 17.1621 44.8529 17.1297 45.3511 17.0863C45.871 17.0213 46.4667 16.9347 47.1381 16.8264C46.6183 17.1513 46.1959 17.4546 45.871 17.7362C45.5677 17.9961 45.3294 18.2344 45.1562 18.451C44.9612 18.6893 44.8312 18.9059 44.7663 19.1008C44.7229 19.2741 44.6796 19.6207 44.6363 20.1405C44.6146 20.6388 44.593 21.2236 44.5713 21.8951C44.5713 22.5449 44.5821 23.2381 44.6038 23.9746C44.6255 24.711 44.6579 25.3825 44.7013 25.989C44.7446 26.5739 44.8096 27.0721 44.8962 27.4837C44.9829 27.8736 45.0912 28.0577 45.2211 28.036C45.3944 27.8844 45.676 27.3754 46.0659 26.5089C46.2175 26.1407 46.4017 25.675 46.6183 25.1118C46.8349 24.5269 47.084 23.8229 47.3656 22.9998C47.6472 22.155 47.9613 21.1694 48.3078 20.0431C48.6761 18.9167 49.0876 17.6062 49.5425 16.1116H52.3693C52.4559 17.5845 52.5534 18.8734 52.6617 19.9781C52.77 21.0828 52.8783 22.0467 52.9866 22.8698C53.0949 23.6713 53.1924 24.3536 53.2791 24.9168C53.3874 25.4583 53.4957 25.9024 53.604 26.249C53.8423 27.0721 54.0805 27.5162 54.3188 27.5811C54.5137 27.5378 54.7195 27.2887 54.9361 26.8338C55.1744 26.3789 55.391 25.8158 55.586 25.1443C55.8026 24.4728 55.9975 23.7471 56.1708 22.9673C56.3441 22.1659 56.4957 21.4186 56.6257 20.7254C56.7557 20.0322 56.8423 19.4257 56.8856 18.9059C56.929 18.386 56.929 18.0611 56.8856 17.9311C56.8207 17.8011 56.6907 17.617 56.4957 17.3788C56.3225 17.1838 56.0842 16.9455 55.7809 16.6639C55.4993 16.3823 55.1094 16.0466 54.6112 15.6567C55.2177 15.765 55.7918 15.8408 56.3333 15.8841C56.8965 15.9058 57.3947 15.9275 57.8279 15.9491C58.3261 15.9708 58.781 15.9708 59.1925 15.9491C59.6258 15.9491 60.1565 15.9383 60.7846 15.9166C61.3262 15.895 61.9977 15.8841 62.7991 15.8841C63.6222 15.8841 64.5862 15.8625 65.6909 15.8192C64.7161 16.1224 63.9363 16.4148 63.3515 16.6964C62.7883 16.9564 62.3551 17.2055 62.0518 17.4437C61.6836 17.7037 61.4236 17.9528 61.272 18.191C61.1204 18.516 60.8821 19.1983 60.5572 20.238C60.4272 20.6712 60.2648 21.2128 60.0698 21.8626C59.8749 22.4908 59.6474 23.2381 59.3875 24.1045C59.1276 24.971 58.8351 25.9782 58.5102 27.1263C58.1853 28.2526 57.8171 29.5415 57.4055 30.9928C57.1672 30.9494 56.9181 30.9278 56.6582 30.9278C56.4199 30.9061 56.1925 30.8953 55.9759 30.8953H55.2286C54.9686 30.9169 54.687 30.9386 54.3838 30.9603C54.1238 30.9819 53.8206 31.0144 53.474 31.0577C53.1274 31.1011 52.7484 31.1552 52.3368 31.2202L50.3873 23.3247L47.2031 31.2202L43.5641 31.1227C43.1092 28.675 42.7409 26.7255 42.4593 25.2742C42.1994 23.8013 41.9828 22.6749 41.8095 21.8951C41.6146 20.9853 41.4846 20.3463 41.4196 19.9781C41.3113 19.5882 41.1489 19.2091 40.9322 18.8409C40.759 18.5376 40.5098 18.2235 40.1849 17.8986C39.86 17.552 39.4593 17.2596 38.9827 17.0213Z" fill="#4A9772"/>
<path d="M112.804 9.15837C113.519 9.24501 114.168 9.31 114.753 9.35332C115.316 9.39664 115.804 9.43996 116.215 9.48329C116.692 9.52661 117.114 9.5591 117.483 9.58076C117.872 9.58076 118.371 9.56993 118.977 9.54827C119.497 9.52661 120.158 9.49412 120.959 9.45079C121.761 9.40747 122.746 9.33166 123.916 9.22335C123.353 9.54827 122.887 9.87319 122.519 10.1981C122.172 10.523 121.901 10.8154 121.706 11.0754C121.468 11.3786 121.295 11.6819 121.187 11.9851C121.122 12.3967 121.143 13.1982 121.252 14.3895C121.295 14.8877 121.36 15.5051 121.447 16.2415C121.555 16.9564 121.685 17.812 121.836 18.8084C122.01 19.7831 122.216 20.9095 122.454 22.1875C122.714 23.4655 123.006 24.9168 123.331 26.5414C123.764 25.3067 124.122 24.2128 124.403 23.2597C124.685 22.285 124.923 21.451 125.118 20.7579C125.335 19.9781 125.519 19.2849 125.67 18.6784C125.822 18.0503 126.006 17.238 126.223 16.2415C126.396 15.3968 126.624 14.3029 126.905 12.9599C127.187 11.6169 127.533 9.95983 127.945 7.98867L129.115 8.15113C129.223 9.68907 129.331 11.0429 129.439 12.2126C129.569 13.3823 129.678 14.3787 129.764 15.2018C129.851 16.1549 129.938 16.978 130.024 17.6712C130.111 18.2994 130.241 19.025 130.414 19.8481C130.566 20.5413 130.761 21.3969 130.999 22.415C131.237 23.4114 131.551 24.5378 131.941 25.7941C132.331 24.2562 132.678 22.8807 132.981 21.6677C133.306 20.4546 133.577 19.3824 133.793 18.451C134.032 17.5196 134.227 16.7181 134.378 16.0466C134.552 15.3751 134.692 14.8119 134.801 14.357C135.039 13.274 135.18 12.5483 135.223 12.1801C135.201 11.7685 135.104 11.3678 134.931 10.9779C134.779 10.6313 134.541 10.2523 134.216 9.84069C133.891 9.42913 133.414 9.0284 132.786 8.6385C134.107 8.68183 135.18 8.71432 136.003 8.73598C136.848 8.73598 137.519 8.73598 138.017 8.73598H139.317H140.487C140.92 8.73598 141.483 8.73598 142.176 8.73598C142.891 8.71432 143.801 8.68183 144.906 8.6385C143.952 9.13671 143.183 9.59159 142.599 10.0032C142.014 10.4147 141.559 10.7613 141.234 11.0429C140.844 11.3895 140.562 11.6819 140.389 11.9202C140.216 12.3534 139.934 13.3281 139.544 14.8444C139.371 15.4942 139.176 16.3065 138.96 17.2813C138.743 18.2344 138.483 19.3824 138.18 20.7254C137.898 22.0684 137.573 23.6388 137.205 25.4367C136.837 27.2129 136.425 29.249 135.97 31.5451L130.349 30.9603L127.945 20.8554C127.577 22.6966 127.284 24.1912 127.068 25.3392C126.851 26.4656 126.689 27.3429 126.58 27.971C126.45 28.7292 126.374 29.2815 126.353 29.6281C126.331 29.9314 126.309 30.2238 126.288 30.5054C126.266 30.7437 126.234 31.0036 126.19 31.2852C126.169 31.5668 126.136 31.8267 126.093 32.065H120.342C119.779 29.5956 119.27 27.4187 118.815 25.5342C118.382 23.628 117.992 21.9601 117.645 20.5304C117.298 19.1008 116.995 17.8878 116.735 16.8914C116.497 15.895 116.28 15.061 116.085 14.3895C115.652 12.8299 115.338 11.866 115.143 11.4978C114.992 11.3245 114.797 11.1187 114.558 10.8804C114.363 10.6855 114.125 10.4472 113.843 10.1656C113.54 9.86236 113.194 9.52661 112.804 9.15837ZM149.454 17.4437C150.018 17.4437 150.602 17.552 151.209 17.7687C151.815 17.9636 152.4 18.2235 152.963 18.5485C153.527 18.8517 154.036 19.1875 154.491 19.5557C154.967 19.9023 155.357 20.238 155.66 20.5629C156.202 21.1478 156.57 21.9384 156.765 22.9348C156.982 23.9096 157.025 24.9168 156.895 25.9566C156.765 26.9746 156.462 27.9385 155.985 28.8483C155.509 29.7581 154.848 30.4296 154.003 30.8628C153.397 31.166 152.801 31.4043 152.216 31.5776C151.631 31.7509 151.068 31.8809 150.527 31.9675C149.985 32.0542 149.476 32.0975 148.999 32.0975C148.523 32.0975 148.111 32.0866 147.765 32.065C147.115 32.0217 146.433 31.7942 145.718 31.3827C145.025 30.9711 144.364 30.4621 143.736 29.8556C143.129 29.249 142.609 28.5884 142.176 27.8736C141.743 27.1371 141.483 26.4439 141.396 25.7941C141.266 24.906 141.245 23.9746 141.331 22.9998C141.418 22.0251 141.732 21.1261 142.274 20.303C142.837 19.4799 143.682 18.7976 144.808 18.256C145.956 17.7145 147.505 17.4437 149.454 17.4437ZM148.382 30.0505C148.62 30.0938 148.945 30.0397 149.357 29.888C149.768 29.7148 150.169 29.444 150.559 29.0758C150.971 28.7075 151.328 28.2418 151.631 27.6786C151.956 27.0938 152.151 26.3898 152.216 25.5667C152.281 24.7652 152.281 24.0287 152.216 23.3572C152.173 22.6857 152.075 22.1009 151.924 21.6027C151.772 21.0828 151.599 20.6604 151.404 20.3355C151.209 20.0106 151.003 19.7831 150.787 19.6532C150.418 19.4582 149.974 19.3066 149.454 19.1983C148.934 19.0683 148.49 19.09 148.122 19.2633C147.949 19.3499 147.732 19.534 147.472 19.8156C147.212 20.0972 146.952 20.4546 146.693 20.8879C146.433 21.2994 146.194 21.776 145.978 22.3175C145.783 22.859 145.642 23.4222 145.555 24.0071C145.469 24.5919 145.447 25.2201 145.49 25.8916C145.555 26.5631 145.696 27.2021 145.913 27.8086C146.129 28.3934 146.433 28.9025 146.823 29.3357C147.234 29.7472 147.754 29.9855 148.382 30.0505ZM158.13 16.4365C158.541 16.4582 158.909 16.469 159.234 16.469C159.581 16.4473 159.873 16.4257 160.112 16.404C160.393 16.3823 160.642 16.3607 160.859 16.339C161.184 16.2957 161.52 16.2415 161.866 16.1766C162.169 16.1332 162.484 16.0791 162.808 16.0141C163.155 15.9275 163.491 15.83 163.816 15.7217C163.686 16.0466 163.577 16.3282 163.491 16.5665C163.404 16.8047 163.339 17.0105 163.296 17.1838C163.231 17.3788 163.198 17.5412 163.198 17.6712C163.177 17.8228 163.166 18.0069 163.166 18.2235C163.144 18.5918 163.144 19.1875 163.166 20.0106C164.292 19.0358 165.234 18.2777 165.993 17.7362C166.772 17.1946 167.39 16.7722 167.845 16.469C168.386 16.1224 168.809 15.895 169.112 15.7867C169.913 15.6567 170.617 15.8408 171.224 16.339C171.484 16.5556 171.733 16.8481 171.971 17.2163C172.209 17.5629 172.415 18.0286 172.588 18.6134C172.762 19.1983 172.892 19.9023 172.978 20.7254C173.065 21.5269 173.076 22.4908 173.011 23.6172C172.556 23.6605 172.144 23.7038 171.776 23.7471C171.43 23.7904 171.137 23.8229 170.899 23.8446C170.617 23.8879 170.357 23.9096 170.119 23.9096L169.242 24.0071C168.939 24.0504 168.559 24.0937 168.105 24.137C167.671 24.1587 167.141 24.202 166.512 24.267C167.422 23.5305 168.007 22.8915 168.267 22.35C168.549 21.7868 168.668 21.3211 168.624 20.9528C168.581 20.5413 168.386 20.1839 168.04 19.8806C167.628 19.6423 167.184 19.5557 166.707 19.6207C166.296 19.664 165.819 19.8481 165.278 20.173C164.736 20.498 164.162 21.1045 163.556 21.9926C163.599 23.3789 163.642 24.5269 163.686 25.4367C163.751 26.3465 163.805 27.0829 163.848 27.6461C163.913 28.296 163.967 28.805 164.011 29.1732C164.076 29.4981 164.206 29.8447 164.401 30.213C164.552 30.5162 164.769 30.852 165.05 31.2202C165.332 31.5884 165.7 31.9567 166.155 32.3249C165.202 32.2816 164.422 32.2816 163.816 32.3249C163.447 32.3466 163.123 32.3682 162.841 32.3899C162.538 32.4332 162.213 32.4765 161.866 32.5199C161.563 32.5632 161.205 32.6065 160.794 32.6498C160.404 32.7148 159.971 32.7798 159.494 32.8448C159.668 32.6065 159.808 32.3249 159.917 32C160.025 31.6967 160.112 31.4043 160.177 31.1227C160.263 30.7978 160.328 30.4621 160.372 30.1155C160.393 29.8122 160.404 29.3573 160.404 28.7508C160.426 28.1443 160.415 27.462 160.372 26.7039C160.35 25.9241 160.317 25.1226 160.274 24.2995C160.231 23.4547 160.177 22.6641 160.112 21.9276C160.047 21.1911 159.971 20.5521 159.884 20.0106C159.819 19.4474 159.743 19.0575 159.657 18.8409C159.548 18.5809 159.418 18.321 159.267 18.0611C159.137 17.8228 158.974 17.5737 158.779 17.3138C158.585 17.0322 158.368 16.7398 158.13 16.4365ZM175.123 32.9098C175.339 32.5848 175.513 32.2816 175.643 32C175.773 31.7184 175.881 31.4801 175.968 31.2852C176.054 31.0469 176.119 30.8303 176.162 30.6354C176.184 30.5054 176.195 30.1263 176.195 29.4981C176.195 28.87 176.173 28.0793 176.13 27.1263C176.108 26.1732 176.076 25.1009 176.033 23.9096C176.011 22.7182 175.968 21.5052 175.903 20.2705C175.859 19.0358 175.805 17.8336 175.74 16.6639C175.697 15.4942 175.653 14.4437 175.61 13.5123C175.567 12.5592 175.523 11.7794 175.48 11.1729C175.437 10.5663 175.404 10.2198 175.383 10.1331C175.339 10.0032 175.264 9.87319 175.155 9.74322C174.939 9.48329 174.57 9.23418 174.051 8.99591C175.155 8.71432 176 8.48688 176.585 8.31359C176.931 8.22694 177.235 8.1403 177.495 8.05365C177.733 7.96701 177.971 7.88036 178.209 7.79372C178.404 7.70708 178.621 7.6096 178.859 7.5013C179.098 7.37133 179.314 7.23053 179.509 7.0789C179.401 7.70708 179.314 8.31359 179.249 8.89844C179.184 9.48329 179.13 10.0248 179.087 10.523C179.043 11.0862 179.022 11.6277 179.022 12.1476C178.913 13.209 178.848 14.3679 178.827 15.6242C178.827 16.8589 178.838 18.1152 178.859 19.3932C178.881 20.6712 178.924 21.9168 178.989 23.1298C179.054 24.3428 179.119 25.4475 179.184 26.4439C179.271 27.4187 179.347 28.2526 179.412 28.9458C179.498 29.6173 179.563 30.0505 179.607 30.2455C179.693 30.5704 179.78 30.8845 179.867 31.1877C179.953 31.4476 180.051 31.7184 180.159 32C180.267 32.3033 180.397 32.5415 180.549 32.7148H177.397C177.116 32.7148 176.845 32.7256 176.585 32.7473C176.347 32.769 176.098 32.7906 175.838 32.8123C175.578 32.834 175.339 32.8664 175.123 32.9098ZM197.672 7.1114C198.084 7.13306 198.528 7.14389 199.004 7.14389C199.416 7.14389 199.881 7.15472 200.401 7.17638C200.943 7.17638 201.506 7.15472 202.091 7.1114C201.571 7.34967 201.116 7.69625 200.726 8.15113C200.336 8.60601 200.022 9.06089 199.784 9.51578C199.481 10.0573 199.232 10.6205 199.037 11.2053C198.928 11.5519 198.842 12.1693 198.777 13.0574C198.712 13.9238 198.658 14.9419 198.614 16.1116C198.593 17.2813 198.582 18.516 198.582 19.8156C198.582 21.1153 198.593 22.3608 198.614 23.5522C198.636 24.7219 198.668 25.7616 198.712 26.6714C198.755 27.5811 198.809 28.2201 198.874 28.5884C198.961 29.0216 199.069 29.4332 199.199 29.8231C199.307 30.1696 199.448 30.527 199.621 30.8953C199.795 31.2419 200.011 31.5235 200.271 31.7401L196.957 33.2347C196.784 32.9964 196.643 32.7473 196.535 32.4874C196.426 32.2491 196.34 32.0325 196.275 31.8375C196.188 31.5993 196.134 31.3827 196.112 31.1877C196.069 30.9278 196.026 30.6462 195.982 30.3429C195.939 30.018 195.885 29.7148 195.82 29.4332C195.777 29.1299 195.744 28.8808 195.722 28.6859C195.701 28.4909 195.701 28.3718 195.722 28.3284C195.744 28.2851 195.614 28.4801 195.333 28.9133C195.051 29.3249 194.629 29.8122 194.065 30.3754C193.524 30.9169 192.852 31.4476 192.051 31.9675C191.249 32.4657 190.351 32.7798 189.354 32.9098C188.336 33.0397 187.394 32.8448 186.527 32.3249C185.683 31.8051 184.957 31.0794 184.35 30.148C183.744 29.1949 183.278 28.101 182.953 26.8663C182.65 25.61 182.531 24.332 182.596 23.0323C182.639 22.1659 182.834 21.3969 183.181 20.7254C183.527 20.0322 183.96 19.4366 184.48 18.9384C185.022 18.4185 185.607 17.9853 186.235 17.6387C186.885 17.2705 187.513 16.9672 188.119 16.7289C188.748 16.4907 189.332 16.3174 189.874 16.2091C190.415 16.1008 190.849 16.0249 191.174 15.9816C191.564 15.96 192.008 16.0249 192.506 16.1766C192.939 16.3065 193.437 16.5231 194 16.8264C194.585 17.1297 195.235 17.5845 195.95 18.191C195.82 16.0249 195.701 14.2921 195.592 12.9924C195.484 11.6711 195.376 10.6638 195.268 9.97066C195.159 9.14754 195.062 8.58435 194.975 8.2811C194.867 8.06448 194.726 7.84787 194.553 7.63126C194.401 7.45797 194.206 7.28468 193.968 7.1114C193.751 6.91645 193.491 6.76482 193.188 6.65651C193.751 6.76482 194.293 6.84063 194.813 6.88395C195.333 6.92728 195.809 6.9706 196.242 7.01392C196.741 7.05724 197.217 7.08973 197.672 7.1114ZM189.517 19.2308C189.105 19.3824 188.769 19.6423 188.509 20.0106C188.271 20.3788 188.076 20.8229 187.924 21.3427C187.773 21.8409 187.665 22.3825 187.6 22.9673C187.556 23.5305 187.524 24.0829 187.502 24.6244C187.502 25.1443 187.502 25.6208 187.502 26.054C187.502 26.4872 187.502 26.8122 187.502 27.0288C187.502 27.1587 187.524 27.397 187.567 27.7436C187.632 28.0685 187.762 28.4151 187.957 28.7833C188.152 29.1299 188.423 29.444 188.769 29.7256C189.137 30.0072 189.625 30.148 190.231 30.148C190.73 30.1047 191.26 29.9314 191.823 29.6281C192.322 29.3682 192.885 28.9566 193.513 28.3934C194.163 27.8086 194.856 26.9746 195.592 25.8916C195.549 25.1984 195.517 24.6244 195.495 24.1695C195.495 23.7146 195.484 23.3464 195.463 23.0648C195.441 22.7399 195.43 22.4799 195.43 22.285V21.7976C195.43 21.6677 195.43 21.5269 195.43 21.3752C195.43 21.2236 195.441 21.0828 195.463 20.9528C194.856 20.5196 194.314 20.1514 193.838 19.8481C193.383 19.5232 192.928 19.2849 192.473 19.1333C192.04 18.96 191.585 18.8842 191.109 18.9059C190.654 18.9059 190.123 19.0142 189.517 19.2308Z" fill="#D0A765"/>
</svg>
