<svg width="17" height="22" viewBox="0 0 17 22" fill="none" xmlns="http://www.w3.org/2000/svg">
<path d="M8.61999 16.4617C7.54514 16.4617 6.68332 15.5902 6.68332 14.525C6.68332 13.4502 7.54514 12.5883 8.61999 12.5883C9.13362 12.5883 9.62622 12.7924 9.98942 13.1556C10.3526 13.5188 10.5567 14.0114 10.5567 14.525C10.5567 15.0386 10.3526 15.5312 9.98942 15.8944C9.62622 16.2576 9.13362 16.4617 8.61999 16.4617ZM14.43 19.3667V9.68333H2.80999V19.3667H14.43ZM14.43 7.74667C14.9436 7.74667 15.4362 7.95071 15.7994 8.3139C16.1626 8.6771 16.3667 9.1697 16.3667 9.68333V19.3667C16.3667 19.8803 16.1626 20.3729 15.7994 20.7361C15.4362 21.0993 14.9436 21.3033 14.43 21.3033H2.80999C1.73514 21.3033 0.873322 20.4318 0.873322 19.3667V9.68333C0.873322 8.60848 1.73514 7.74667 2.80999 7.74667H3.77832V5.81C3.77832 4.52591 4.28842 3.29441 5.19641 2.38643C6.1044 1.47844 7.3359 0.968334 8.61999 0.968334C9.2558 0.968334 9.8854 1.09357 10.4728 1.33688C11.0602 1.5802 11.594 1.93684 12.0436 2.38643C12.4932 2.83602 12.8498 3.36976 13.0931 3.95717C13.3364 4.54459 13.4617 5.17418 13.4617 5.81V7.74667H14.43ZM8.61999 2.905C7.84953 2.905 7.11064 3.21106 6.56584 3.75586C6.02105 4.30065 5.71499 5.03955 5.71499 5.81V7.74667H11.525V5.81C11.525 5.03955 11.2189 4.30065 10.6741 3.75586C10.1293 3.21106 9.39044 2.905 8.61999 2.905Z" fill="#206C47"/>
</svg>
