<svg width="22" height="27" viewBox="0 0 22 27" fill="none" xmlns="http://www.w3.org/2000/svg">
<path d="M8.82967 26.1806V20.0502C8.15332 20.2949 7.43379 20.4244 6.67108 20.4244C3.07343 20.4244 0.195312 17.5462 0.195312 13.9486C0.195312 12.121 0.914843 10.4805 2.15243 9.30044C1.82145 8.52334 1.63437 7.65991 1.63437 6.7533C1.63437 3.15565 4.51249 0.277527 8.11014 0.277527C10.3551 0.277527 12.341 1.42877 13.5066 3.15565C13.6217 3.15565 13.7369 3.15565 13.8664 3.15565C14.9058 3.15565 15.935 3.36037 16.8953 3.75813C17.8555 4.15589 18.7281 4.73889 19.463 5.47385C20.198 6.20881 20.781 7.08133 21.1787 8.0416C21.5765 9.00187 21.7812 10.0311 21.7812 11.0705C21.7812 12.1099 21.5765 13.1391 21.1787 14.0994C20.781 15.0596 20.198 15.9321 19.463 16.6671C18.7281 17.4021 17.8555 17.9851 16.8953 18.3828C15.935 18.7806 14.9058 18.9853 13.8664 18.9853C13.1469 18.9853 12.4273 18.8846 11.7078 18.6831V26.1806H8.82967Z" fill="#206C47"/>
</svg>
