<svg width="28" height="27" viewBox="0 0 28 27" fill="none" xmlns="http://www.w3.org/2000/svg">
<path d="M14.1102 0.09375C6.80439 0.09375 0.850026 6.04812 0.850026 13.3539C0.850026 15.6955 1.46553 17.9702 2.61627 19.9773L0.742981 26.855L7.7678 25.0084C9.70799 26.0655 11.889 26.6275 14.1102 26.6275C21.416 26.6275 27.3704 20.6731 27.3704 13.3673C27.3704 9.82145 25.9922 6.48968 23.49 3.98751C20.9878 1.47195 17.6561 0.09375 14.1102 0.09375ZM14.1236 2.32831C17.0673 2.32831 19.8237 3.47904 21.9111 5.56642C23.9851 7.65379 25.1358 10.4236 25.1358 13.3673C25.1358 19.4421 20.185 24.3795 14.1102 24.3795C12.1299 24.3795 10.1897 23.8577 8.50373 22.8408L8.10231 22.6133L3.92756 23.7105L5.03816 19.6428L4.77054 19.2146C3.67333 17.4885 3.08459 15.4413 3.08459 13.3539C3.09797 7.27913 8.03541 2.32831 14.1236 2.32831ZM9.41361 7.22561C9.19952 7.22561 8.83825 7.30589 8.53049 7.64041C8.23612 7.97492 7.36638 8.79114 7.36638 10.4102C7.36638 12.0426 8.55725 13.6082 8.70444 13.8356C8.89177 14.0631 11.0594 17.4082 14.3912 18.8266C15.1807 19.1879 15.7962 19.3886 16.2779 19.5358C17.0673 19.79 17.7899 19.7499 18.3652 19.6696C19.0075 19.5759 20.3188 18.8667 20.5998 18.0907C20.8808 17.3146 20.8808 16.6589 20.8005 16.5117C20.7068 16.3779 20.4928 16.2977 20.1582 16.1505C19.8237 15.9631 18.1913 15.1603 17.8969 15.0533C17.5892 14.9462 17.4018 14.8927 17.1476 15.2138C16.9335 15.5483 16.2912 16.2977 16.1039 16.5117C15.9032 16.7392 15.7159 16.766 15.3947 16.6054C15.0468 16.4315 13.9764 16.0836 12.7186 14.9596C11.7285 14.0765 11.0728 12.9927 10.8721 12.6581C10.7115 12.337 10.8587 12.1363 11.0193 11.9891C11.1665 11.8419 11.3806 11.6011 11.5144 11.4004C11.6883 11.213 11.7418 11.0658 11.8489 10.8518C11.9559 10.6243 11.9024 10.437 11.8221 10.2764C11.7418 10.1292 11.0728 8.47001 10.7918 7.81436C10.5242 7.17209 10.2566 7.25237 10.0425 7.23899C9.85517 7.23899 9.64108 7.22561 9.41361 7.22561Z" fill="#206C47"/>
</svg>
